<svg width="56" height="56" viewBox="0 0 56 56" fill="none" xmlns="http://www.w3.org/2000/svg">
<path d="M23.9804 34.1346C24.2476 34.4018 24.6078 34.5412 24.968 34.5412C25.3281 34.5412 25.6767 34.4018 25.9555 34.1346L36.2377 23.8524C36.7837 23.3064 36.7837 22.4234 36.2377 21.8773C35.6916 21.3313 34.8086 21.3313 34.2626 21.8773L24.9564 31.1836L21.7265 27.9537C21.1804 27.4076 20.2974 27.4076 19.7514 27.9537C19.2053 28.4997 19.2053 29.3827 19.7514 29.9288L23.9804 34.1346Z" fill="#0095BE"/>
<path d="M13.2218 7.27308C13.489 7.27308 13.7562 7.19175 14.0002 7.04072C14.6392 6.61084 14.8135 5.73947 14.3836 5.10046C13.9537 4.46146 13.094 4.28719 12.4434 4.71706C11.8044 5.14694 11.6301 6.00669 12.06 6.64569C12.3272 7.05233 12.7687 7.27308 13.2218 7.27308Z" fill="#0095BE"/>
<path d="M9.18986 10.5843C9.55003 10.5843 9.9102 10.4448 10.1774 10.1776C10.7235 9.63156 10.7235 8.74857 10.1774 8.20251C9.63136 7.65645 8.74837 7.65645 8.20231 8.20251C7.65626 8.74857 7.65626 9.63156 8.20231 10.1776C8.46953 10.4448 8.8297 10.5843 9.18986 10.5843Z" fill="#0095BE"/>
<path d="M17.8106 4.80982C17.9849 4.80982 18.1708 4.77496 18.345 4.70525C19.0538 4.41479 19.3907 3.5899 19.1002 2.88119C18.8098 2.17247 17.9849 1.83554 17.2762 2.126C16.5674 2.41646 16.2305 3.24135 16.521 3.95007C16.7417 4.4845 17.2645 4.80982 17.8106 4.80982Z" fill="#0095BE"/>
<path d="M5.1008 14.3719C5.33317 14.5345 5.612 14.6042 5.87922 14.6042C6.33234 14.6042 6.77383 14.3835 7.04105 13.9885C7.47093 13.3495 7.29665 12.4781 6.65765 12.0598C6.01864 11.63 5.14727 11.8042 4.7174 12.4432C4.28752 13.0822 4.4618 13.942 5.1008 14.3719Z" fill="#0095BE"/>
<path d="M2.88148 19.1003C3.05576 19.17 3.24165 19.2048 3.41592 19.2048C3.96198 19.2048 4.4848 18.8795 4.70555 18.3451C4.99601 17.6364 4.65908 16.8231 3.95036 16.521C3.24165 16.2189 2.42837 16.5675 2.1263 17.2762C1.83584 17.9965 2.17277 18.8098 2.88148 19.1003Z" fill="#0095BE"/>
<path d="M22.7949 3.29975C22.8879 3.29975 22.9692 3.28813 23.0622 3.27651C23.8173 3.12547 24.3053 2.39352 24.1543 1.63834C24.0032 0.883151 23.2713 0.395184 22.5161 0.546221C21.7609 0.697259 21.2729 1.42921 21.424 2.1844C21.5634 2.83502 22.1443 3.29975 22.7949 3.29975Z" fill="#0095BE"/>
<path d="M1.6263 24.1775C1.71924 24.1891 1.81219 24.2008 1.89352 24.2008C2.54414 24.2008 3.12505 23.736 3.26447 23.0738C3.41551 22.3186 2.92754 21.5867 2.17236 21.4356C1.41717 21.2846 0.685219 21.7726 0.534182 22.5277C0.383145 23.2945 0.871112 24.0265 1.6263 24.1775Z" fill="#0095BE"/>
<path d="M47.7975 8.20249C42.5112 2.91618 35.4822 0 28 0C27.2332 0 26.6058 0.627386 26.6058 1.39419C26.6058 2.161 27.2332 2.78838 28 2.78838C41.9071 2.78838 53.2116 14.0929 53.2116 28C53.2116 41.9071 41.9071 53.2116 28 53.2116C14.0929 53.2116 2.78838 41.9071 2.78838 28C2.78838 27.2332 2.161 26.6058 1.39419 26.6058C0.627386 26.6058 0 27.2332 0 28C0 35.4822 2.91618 42.5112 8.20249 47.7975C13.4888 53.0838 20.5178 56 28 56C35.4822 56 42.5112 53.0838 47.7975 47.7975C53.0838 42.5112 56 35.4822 56 28C56 20.5178 53.0838 13.4888 47.7975 8.20249Z" fill="#0095BE"/>
</svg>
