<svg width="10" height="12" viewBox="0 0 10 12" fill="none" xmlns="http://www.w3.org/2000/svg">
<path d="M8.8125 1.5H6.75V1.125C6.75 0.50468 6.24532 0 5.625 0H4.125C3.50468 0 3 0.50468 3 1.125V1.5H0.9375C0.420563 1.5 0 1.92056 0 2.4375V3.75C0 3.95709 0.167906 4.125 0.375 4.125H0.579938L0.903914 10.9285C0.932531 11.5294 1.42612 12 2.02762 12H7.72237C8.3239 12 8.81749 11.5294 8.84609 10.9285L9.17006 4.125H9.375C9.58209 4.125 9.75 3.95709 9.75 3.75V2.4375C9.75 1.92056 9.32944 1.5 8.8125 1.5ZM3.75 1.125C3.75 0.918234 3.91823 0.75 4.125 0.75H5.625C5.83177 0.75 6 0.918234 6 1.125V1.5H3.75V1.125ZM0.75 2.4375C0.75 2.33412 0.834117 2.25 0.9375 2.25H8.8125C8.91588 2.25 9 2.33412 9 2.4375V3.375C8.88443 3.375 1.2289 3.375 0.75 3.375V2.4375ZM8.09693 10.8928C8.08739 11.0931 7.92286 11.25 7.72237 11.25H2.02762C1.82712 11.25 1.66259 11.0931 1.65307 10.8928L1.33078 4.125H8.41922L8.09693 10.8928Z" fill="#E20000"/>
<path d="M4.875 10.5C5.08209 10.5 5.25 10.3321 5.25 10.125V5.25C5.25 5.04291 5.08209 4.875 4.875 4.875C4.66791 4.875 4.5 5.04291 4.5 5.25V10.125C4.5 10.3321 4.66788 10.5 4.875 10.5Z" fill="#E20000"/>
<path d="M6.75 10.5C6.95709 10.5 7.125 10.3321 7.125 10.125V5.25C7.125 5.04291 6.95709 4.875 6.75 4.875C6.54291 4.875 6.375 5.04291 6.375 5.25V10.125C6.375 10.3321 6.54288 10.5 6.75 10.5Z" fill="#E20000"/>
<path d="M3 10.5C3.20709 10.5 3.375 10.3321 3.375 10.125V5.25C3.375 5.04291 3.20709 4.875 3 4.875C2.79291 4.875 2.625 5.04291 2.625 5.25V10.125C2.625 10.3321 2.79288 10.5 3 10.5Z" fill="#E20000"/>
</svg>
