<svg width="56" height="56" viewBox="0 0 56 56" fill="none" xmlns="http://www.w3.org/2000/svg">
<path d="M42.9337 0H13.0672C11.5234 0 10.2672 1.25628 10.2672 2.8C10.2672 4.34372 11.5234 5.6 13.0672 5.6H42.9338C44.4776 5.6 45.7338 4.34372 45.7338 2.8C45.7338 1.25628 44.4775 0 42.9337 0ZM42.9337 3.7333H13.0672C12.5529 3.7333 12.1339 3.31516 12.1339 2.8C12.1339 2.28484 12.5529 1.8667 13.0672 1.8667H42.9338C43.4481 1.8667 43.8671 2.28484 43.8671 2.8C43.8671 3.31516 43.448 3.7333 42.9337 3.7333Z" fill="#777777"/>
<path d="M42.9337 50.3999H13.0672C11.5234 50.3999 10.2672 51.6562 10.2672 53.1999C10.2672 54.7436 11.5234 55.9999 13.0672 55.9999H42.9338C44.4776 55.9999 45.7338 54.7436 45.7338 53.1999C45.7338 51.6562 44.4775 50.3999 42.9337 50.3999ZM42.9337 54.1332H13.0672C12.5529 54.1332 12.1339 53.7151 12.1339 53.1999C12.1339 52.6847 12.5529 52.2666 13.0672 52.2666H42.9338C43.4481 52.2666 43.8671 52.6847 43.8671 53.1999C43.8671 53.7151 43.448 54.1332 42.9337 54.1332Z" fill="#777777"/>
<path d="M34.651 24.5354C39.3904 19.796 42 13.495 42 6.79371V4.6667C42 4.15055 41.5819 3.7334 41.0667 3.7334H14.9333C14.4181 3.7334 14 4.15055 14 4.6667V6.79371C14 13.496 16.6096 19.796 21.3481 24.5354L22.2861 25.4734C22.9516 26.1389 23.3333 27.0591 23.3333 28C23.3333 28.9408 22.9516 29.8611 22.287 30.5266L21.349 31.4646C16.6096 36.204 14 42.504 14 49.2063V51.3333C14 51.8494 14.4181 52.2666 14.9333 52.2666H41.0666C41.5818 52.2666 41.9999 51.8494 41.9999 51.3333V49.2063C41.9999 42.505 39.3903 36.204 34.6509 31.4646L33.7129 30.5266C33.038 29.8517 32.6666 28.9548 32.6666 28C32.6666 27.0451 33.038 26.1483 33.7129 25.4734L34.651 24.5354ZM32.3932 24.1537C31.3656 25.1804 30.8 26.5459 30.8 28C30.8 29.4541 31.3656 30.8196 32.3932 31.8463L33.3312 32.7843C37.7179 37.171 40.1333 43.0033 40.1333 49.2063V50.4H15.8667V49.2063C15.8667 43.0024 18.2821 37.171 22.6679 32.7843L23.6059 31.8463C24.6344 30.8196 25.2 29.4531 25.2 28C25.2 26.5468 24.6344 25.1804 23.6068 24.1537L22.6688 23.2157C18.2821 18.829 15.8667 12.9966 15.8667 6.79371V5.59999H40.1334V6.79371C40.1334 12.9967 37.718 18.829 33.3313 23.2157L32.3932 24.1537Z" fill="#777777"/>
<path d="M35.8876 15.7238C35.7933 15.4868 35.4723 14.9332 34.5333 14.9332C29.6837 14.9332 27.523 13.8944 26.6662 13.2746C25.5975 12.5009 24.2264 12.2984 22.9953 12.7342C21.8203 13.1495 20.9597 14.0735 20.6359 15.2682C20.5519 15.5791 20.5369 15.7806 20.5369 15.7806C20.5229 15.9645 20.563 16.1634 20.6536 16.3248C21.5282 17.8751 22.537 19.5102 23.9893 20.9625L24.9263 21.9005C26.3068 23.2791 27.0665 25.1139 27.0665 27.0665C27.0665 27.5826 27.4846 27.9998 27.9998 27.9998C28.5149 27.9998 28.9331 27.5826 28.9331 27.0665C28.9331 25.1149 29.6928 23.2799 31.0722 21.9005L32.0112 20.9615C32.2418 20.7319 32.5422 20.4482 32.8726 20.1384C35.2856 17.8695 36.3001 16.7654 35.8876 15.7238ZM31.5924 18.7786C31.2471 19.1043 30.9316 19.4012 30.6908 19.6419L29.7519 20.5809C29.0267 21.3052 28.4387 22.1302 27.999 23.0243C27.5594 22.1302 26.9714 21.3052 26.2462 20.5809L25.309 19.6429C24.1629 18.4959 23.3239 17.233 22.4512 15.7108C22.6817 14.9315 23.279 14.6141 23.6179 14.4936C24.2693 14.2631 25.0002 14.3723 25.5713 14.7868C26.7603 15.6473 29.1049 16.6618 33.5962 16.7869C33.0194 17.4365 32.1141 18.2886 31.5924 18.7786Z" fill="#777777"/>
<path d="M38.2027 47.5271C37.9684 44.5013 36.7551 43.245 35.3514 41.789C35.162 41.592 34.9641 41.3877 34.7615 41.1711C33.5892 39.9185 31.9335 39.2 30.2171 39.2H25.7828C24.0674 39.2 22.4107 39.9187 21.2384 41.1711C21.0358 41.3877 20.839 41.5911 20.6494 41.7881C19.2447 43.2441 18.0314 44.5013 17.7981 47.5281C17.7776 47.7875 17.8671 48.0433 18.0436 48.2347C18.2209 48.4251 18.4683 48.5334 18.7286 48.5334H37.272C37.5315 48.5334 37.7797 48.4251 37.957 48.2338C38.1336 48.0424 38.2223 47.7857 38.2027 47.5271ZM19.7917 46.6667C20.1081 45.0371 20.8623 44.2568 21.9934 43.0845C22.1894 42.8811 22.3929 42.6692 22.602 42.4461C23.4224 41.5688 24.5816 41.0667 25.7828 41.0667H30.2171C31.4192 41.0667 32.5784 41.5697 33.3988 42.4452C33.6088 42.6711 33.8123 42.8811 34.0092 43.0855C35.1395 44.2578 35.8927 45.0381 36.2101 46.6667H19.7917Z" fill="#777777"/>
<path d="M27.9718 29.8667C27.4566 29.8667 27.0385 30.2839 27.0385 30.8V31.7333C27.0385 32.2494 27.4566 32.6666 27.9718 32.6666C28.4869 32.6666 28.905 32.2494 28.905 31.7333V30.8C28.905 30.2839 28.4869 29.8667 27.9718 29.8667Z" fill="#777777"/>
<path d="M27.9718 34.5334C27.4566 34.5334 27.0385 34.9506 27.0385 35.4667V36.4C27.0385 36.9162 27.4566 37.3333 27.9718 37.3333C28.4869 37.3333 28.905 36.9162 28.905 36.4V35.4667C28.905 34.9507 28.4869 34.5334 27.9718 34.5334Z" fill="#777777"/>
</svg>
