<svg width="56" height="56" viewBox="0 0 56 56" fill="none" xmlns="http://www.w3.org/2000/svg">
<g clip-path="url(#clip0)">
<path d="M51.2289 12.3551C50.8907 11.8543 50.2109 11.7225 49.7103 12.0606C49.2097 12.3985 49.0779 13.0784 49.4159 13.579C56.3075 23.7872 54.9774 37.5282 46.2535 46.2521C41.3783 51.1275 34.8961 53.8123 28.0011 53.8123C21.1061 53.8123 14.6241 51.1276 9.74861 46.2522C4.87327 41.3769 2.18841 34.8948 2.18841 27.9998C2.18841 21.1049 4.87338 14.6227 9.74861 9.74746C18.6302 0.865893 32.5279 -0.356168 42.7941 6.84166C43.2886 7.1885 43.9708 7.06862 44.3176 6.57402C44.6644 6.07942 44.5445 5.39735 44.0499 5.05052C38.7261 1.31795 32.2053 -0.442356 25.6892 0.094681C19.0964 0.637734 12.886 3.51641 8.20181 8.20055C2.91336 13.4891 0.00088501 20.5206 0.00088501 27.9998C0.00088501 35.4791 2.91336 42.5106 8.20181 47.7991C13.4904 53.0876 20.5218 56.0001 28.001 56.0001C35.4801 56.0001 42.5117 53.0876 47.8002 47.7991C57.2633 38.3359 58.7053 23.4296 51.2289 12.3551Z" fill="#F0BF00"/>
<path d="M28.0024 5.19482C15.4277 5.19482 5.19742 15.4251 5.19742 27.9998C5.19742 40.5744 15.4277 50.8047 28.0024 50.8047C40.577 50.8047 50.8073 40.5744 50.8073 27.9998C50.8073 15.4251 40.577 5.19482 28.0024 5.19482ZM28.0024 48.6172C16.6339 48.6172 7.38494 39.3684 7.38494 27.9998C7.38494 16.6312 16.6339 7.38235 28.0024 7.38235C39.3708 7.38235 48.6198 16.6312 48.6198 27.9998C48.6198 39.3684 39.3708 48.6172 28.0024 48.6172Z" fill="#F0BF00"/>
<path d="M34.9632 33.4135L31.3695 29.8198C31.6635 29.2782 31.8306 28.6581 31.8306 27.9997C31.8306 26.2689 30.6756 24.8034 29.0962 24.3315V16.4058C29.0962 15.8017 28.6065 15.312 28.0024 15.312C27.3983 15.312 26.9087 15.8017 26.9087 16.4058V24.3315C25.3293 24.8034 24.1743 26.2688 24.1743 27.9997C24.1743 30.1105 25.8916 31.8278 28.0024 31.8278C28.6609 31.8278 29.2809 31.6607 29.8226 31.3667L33.4163 34.9604C33.6299 35.174 33.9098 35.2807 34.1897 35.2807C34.4697 35.2807 34.7495 35.1739 34.9631 34.9604C35.3904 34.533 35.3904 33.8406 34.9632 33.4135ZM26.3619 27.9997C26.3619 27.095 27.0979 26.359 28.0025 26.359C28.9072 26.359 29.6432 27.095 29.6432 27.9997C29.6432 28.9043 28.9073 29.6403 28.0025 29.6403C27.0979 29.6403 26.3619 28.9043 26.3619 27.9997Z" fill="#F0BF00"/>
<path d="M28.0023 12.9209C28.6064 12.9209 29.0961 12.4312 29.0961 11.8271V10.7195C29.0961 10.1154 28.6064 9.62573 28.0023 9.62573C27.3982 9.62573 26.9086 10.1154 26.9086 10.7195V11.8271C26.9086 12.4312 27.3982 12.9209 28.0023 12.9209Z" fill="#F0BF00"/>
<path d="M20.3098 12.4875C20.0077 11.9643 19.3387 11.7851 18.8157 12.0872C18.2926 12.3893 18.1133 13.0581 18.4154 13.5813L18.9693 14.5406C19.1719 14.8915 19.5395 15.0876 19.9175 15.0876C20.103 15.0876 20.2912 15.0403 20.4634 14.9409C20.9865 14.6388 21.1658 13.97 20.8637 13.4468L20.3098 12.4875Z" fill="#F0BF00"/>
<path d="M14.5436 18.9662L13.5843 18.4123C13.0612 18.1103 12.3922 18.2895 12.0902 18.8126C11.7881 19.3358 11.9674 20.0046 12.4905 20.3067L13.4498 20.8606C13.6221 20.96 13.8101 21.0073 13.9957 21.0073C14.3736 21.0073 14.7413 20.8111 14.9439 20.4602C15.246 19.9372 15.0667 19.2683 14.5436 18.9662Z" fill="#F0BF00"/>
<path d="M12.9234 28C12.9234 27.3959 12.4337 26.9062 11.8296 26.9062H10.7219C10.1178 26.9062 9.62814 27.3959 9.62814 28C9.62814 28.6041 10.1178 29.0938 10.7219 29.0938H11.8296C12.4336 29.0938 12.9234 28.604 12.9234 28Z" fill="#F0BF00"/>
<path d="M13.4498 35.1393L12.4905 35.6931C11.9674 35.9951 11.7881 36.6641 12.0902 37.1872C12.2928 37.5381 12.6604 37.7342 13.0384 37.7342C13.2239 37.7342 13.412 37.6869 13.5843 37.5875L14.5436 37.0336C15.0667 36.7316 15.246 36.0627 14.9439 35.5396C14.6419 35.0163 13.9729 34.8371 13.4498 35.1393Z" fill="#F0BF00"/>
<path d="M20.4633 41.0583C19.9404 40.7563 19.2714 40.9355 18.9693 41.4586L18.4154 42.418C18.1133 42.9411 18.2927 43.61 18.8157 43.912C18.988 44.0115 19.176 44.0587 19.3616 44.0587C19.7396 44.0587 20.1072 43.8626 20.3098 43.5117L20.8637 42.5524C21.1658 42.0292 20.9864 41.3603 20.4633 41.0583Z" fill="#F0BF00"/>
<path d="M28.0023 43.0786C27.3982 43.0786 26.9086 43.5683 26.9086 44.1724V45.28C26.9086 45.8841 27.3982 46.3738 28.0023 46.3738C28.6064 46.3738 29.0961 45.8841 29.0961 45.28V44.1724C29.096 43.5683 28.6064 43.0786 28.0023 43.0786Z" fill="#F0BF00"/>
<path d="M37.0355 41.4589C36.7336 40.9359 36.065 40.7566 35.5414 41.0585C35.0184 41.3605 34.839 42.0294 35.1411 42.5525L35.6949 43.5119C35.8974 43.8627 36.2651 44.059 36.6432 44.059C36.8287 44.059 37.0167 44.0117 37.1889 43.9123C37.712 43.6103 37.8913 42.9413 37.5893 42.4182L37.0355 41.4589Z" fill="#F0BF00"/>
<path d="M43.5145 35.6926L42.5552 35.1387C42.0318 34.8365 41.3631 35.0159 41.0611 35.5391C40.759 36.0622 40.9383 36.7311 41.4614 37.0331L42.4207 37.587C42.593 37.6865 42.781 37.7337 42.9665 37.7337C43.3445 37.7337 43.7122 37.5376 43.9148 37.1867C44.2168 36.6635 44.0376 35.9946 43.5145 35.6926Z" fill="#F0BF00"/>
<path d="M43.0804 28C43.0804 28.6041 43.5701 29.0938 44.1741 29.0938H45.2819C45.8858 29.0938 46.3756 28.6041 46.3756 28C46.3756 27.3959 45.8858 26.9062 45.2819 26.9062H44.1741C43.57 26.9062 43.0804 27.3959 43.0804 28Z" fill="#F0BF00"/>
<path d="M41.4614 18.9661C40.9383 19.2682 40.759 19.937 41.0611 20.4602C41.2638 20.8111 41.6313 21.0073 42.0094 21.0073C42.1949 21.0073 42.383 20.96 42.5552 20.8606L43.5145 20.3067C44.0376 20.0046 44.2169 19.3358 43.9148 18.8126C43.6127 18.2895 42.944 18.1103 42.4207 18.4123L41.4614 18.9661Z" fill="#F0BF00"/>
<path d="M37.1889 12.0872C36.6657 11.785 35.9969 11.9644 35.6949 12.4875L35.1411 13.4469C34.839 13.97 35.0183 14.6389 35.5414 14.9409C35.7137 15.0405 35.9017 15.0876 36.0872 15.0876C36.4652 15.0876 36.8329 14.8915 37.0355 14.5406L37.5894 13.5813C37.8913 13.0582 37.7122 12.3892 37.1889 12.0872Z" fill="#F0BF00"/>
<path d="M47.1504 10.2741C47.7539 10.2741 48.2432 9.78483 48.2432 9.18125C48.2432 8.57768 47.7539 8.08838 47.1504 8.08838C46.5468 8.08838 46.0575 8.57768 46.0575 9.18125C46.0575 9.78483 46.5468 10.2741 47.1504 10.2741Z" fill="#F0BF00"/>
</g>
<defs>
<clipPath id="clip0">
<rect width="56" height="56" fill="white"/>
</clipPath>
</defs>
</svg>
