<svg width="101" height="28" viewBox="0 0 101 28" fill="none" xmlns="http://www.w3.org/2000/svg">
<mask id="mask0" mask-type="alpha" maskUnits="userSpaceOnUse" x="0" y="0" width="23" height="28">
<path d="M21 24.4286L9.32653 12.7551L9.2449 12.6735L20.9184 1H3.61224L1 3.61225V26.9592H18.4694L21 24.4286Z" fill="#C4C4C4" stroke="black"/>
</mask>
<g mask="url(#mask0)">
<rect x="-7.65308" y="-3.89795" width="36.7347" height="36.7347" fill="white"/>
</g>
<path d="M40.0898 15.6484L38.4023 17.5V22H34.2891V4.9375H38.4023V12.4609L39.832 10.293L43.5117 4.9375H48.5977L42.832 12.4844L48.5977 22H43.7227L40.0898 15.6484ZM55.9805 15.9766H53.7539V22H49.6406V4.9375H56.3555C58.3789 4.9375 59.9609 5.38672 61.1016 6.28516C62.2422 7.18359 62.8125 8.45312 62.8125 10.0938C62.8125 11.2812 62.5703 12.2656 62.0859 13.0469C61.6094 13.8281 60.8594 14.4609 59.8359 14.9453L63.3984 21.8242V22H58.9922L55.9805 15.9766ZM53.7539 12.8008H56.3555C57.1367 12.8008 57.7227 12.5977 58.1133 12.1914C58.5117 11.7773 58.7109 11.2031 58.7109 10.4688C58.7109 9.73438 58.5117 9.16016 58.1133 8.74609C57.7148 8.32422 57.1289 8.11328 56.3555 8.11328H53.7539V12.8008ZM70.6992 4.9375L74.5078 16.8086L78.3047 4.9375H83.7188V22H79.5938V18.0156L79.9922 9.85938L75.8672 22H73.1484L69.0117 9.84766L69.4102 18.0156V22H65.2969V4.9375H70.6992ZM95.1445 17.4648C95.1445 16.8633 94.9297 16.3945 94.5 16.0586C94.0781 15.7227 93.332 15.375 92.2617 15.0156C91.1914 14.6562 90.3164 14.3086 89.6367 13.9727C87.4258 12.8867 86.3203 11.3945 86.3203 9.49609C86.3203 8.55078 86.5938 7.71875 87.1406 7C87.6953 6.27344 88.4766 5.71094 89.4844 5.3125C90.4922 4.90625 91.625 4.70312 92.8828 4.70312C94.1094 4.70312 95.207 4.92188 96.1758 5.35938C97.1523 5.79687 97.9102 6.42188 98.4492 7.23438C98.9883 8.03906 99.2578 8.96094 99.2578 10H95.1562C95.1562 9.30469 94.9414 8.76562 94.5117 8.38281C94.0898 8 93.5156 7.80859 92.7891 7.80859C92.0547 7.80859 91.4727 7.97266 91.043 8.30078C90.6211 8.62109 90.4102 9.03125 90.4102 9.53125C90.4102 9.96875 90.6445 10.3672 91.1133 10.7266C91.582 11.0781 92.4062 11.4453 93.5859 11.8281C94.7656 12.2031 95.7344 12.6094 96.4922 13.0469C98.3359 14.1094 99.2578 15.5742 99.2578 17.4414C99.2578 18.9336 98.6953 20.1055 97.5703 20.957C96.4453 21.8086 94.9023 22.2344 92.9414 22.2344C91.5586 22.2344 90.3047 21.9883 89.1797 21.4961C88.0625 20.9961 87.2188 20.3164 86.6484 19.457C86.0859 18.5898 85.8047 17.5938 85.8047 16.4688H89.9297C89.9297 17.3828 90.1641 18.0586 90.6328 18.4961C91.1094 18.9258 91.8789 19.1406 92.9414 19.1406C93.6211 19.1406 94.1562 18.9961 94.5469 18.707C94.9453 18.4102 95.1445 17.9961 95.1445 17.4648Z" fill="white"/>
</svg>
